<svg xmlns="http://www.w3.org/2000/svg" data-name="Layer 1" width="888" height="567.33728"><rect id="backgroundrect" width="100%" height="100%" x="0" y="0" fill="none" stroke="none"/><title>updated_resume</title><g class="currentLayer" style=""><title>Layer 1</title><rect x="97.18216705322266" width="420" height="550" fill="#e6e6e6" id="svg_1"/><rect x="122.18216705322266" y="28.5" width="370" height="100" fill="#fff" id="svg_2"/><rect x="261.1821594238281" y="162.5" width="230" height="360" fill="#fff" id="svg_3"/><rect x="279.3396911621094" y="65.86608123779297" width="93.42308044433594" height="7.021890163421631" fill="#e6e6e6" id="svg_4"/><rect x="266.8396911621094" y="84.11203002929688" width="117.57325744628906" height="7.021890163421631" fill="#e6e6e6" id="svg_5"/><rect x="325.3396911621094" y="245.5752410888672" width="93.42308044433594" height="7.021890163421631" fill="#e6e6e6" id="svg_6"/><rect x="325.3396911621094" y="266.1891784667969" width="144.26556396484375" height="7.021890163421631" fill="#009900" id="svg_7" class="" fill-opacity="1"/><rect x="326.8396911621094" y="285.8211975097656" width="117.57325744628906" height="7.021890163421631" fill="#e6e6e6" id="svg_8"/><rect x="325.3396911621094" y="307.3620300292969" width="68.63735961914062" height="7.021890163421631" fill="#e6e6e6" id="svg_9"/><rect x="325.3396911621094" y="328.4028625488281" width="103.59158325195312" height="7.021890163421631" fill="#009900" id="svg_10" class="" fill-opacity="1"/><rect x="282.75909423828125" y="243.36639404296875" width="11.439559936523438" height="11.439559936523438" fill="#e6e6e6" id="svg_11"/><rect x="282.75909423828125" y="263.9803161621094" width="11.439559936523438" height="11.439559936523438" fill="#009900" id="svg_12" class="" fill-opacity="1"/><rect x="282.75909423828125" y="283.61236572265625" width="11.439559936523438" height="11.439559936523438" fill="#e6e6e6" id="svg_13"/><rect x="282.75909423828125" y="305.1531982421875" width="11.439559936523438" height="11.439559936523438" fill="#e6e6e6" id="svg_14"/><rect x="282.75909423828125" y="326.19403076171875" width="11.439559936523438" height="11.439559936523438" fill="#009900" id="svg_15" class="" fill-opacity="1"/><rect x="325.3396911621094" y="349.5752258300781" width="93.42308044433594" height="7.021890163421631" fill="#e6e6e6" id="svg_16"/><rect x="325.3396911621094" y="370.1891784667969" width="144.26556396484375" height="7.021890163421631" fill="#009900" id="svg_17" class="" fill-opacity="1"/><rect x="326.8396911621094" y="389.8211975097656" width="117.57325744628906" height="7.021890163421631" fill="#e6e6e6" id="svg_18"/><rect x="325.3396911621094" y="411.3620300292969" width="68.63735961914062" height="7.021890163421631" fill="#e6e6e6" id="svg_19"/><rect x="325.3396911621094" y="432.4028625488281" width="103.59158325195312" height="7.021890163421631" fill="#e6e6e6" id="svg_20"/><rect x="282.75909423828125" y="347.36639404296875" width="11.439559936523438" height="11.439559936523438" fill="#e6e6e6" id="svg_21"/><rect x="282.75909423828125" y="367.9803161621094" width="11.439559936523438" height="11.439559936523438" fill="#009900" id="svg_22" class="" fill-opacity="1"/><rect x="282.75909423828125" y="387.61236572265625" width="11.439559936523438" height="11.439559936523438" fill="#e6e6e6" id="svg_23"/><rect x="282.75909423828125" y="409.1531982421875" width="11.439559936523438" height="11.439559936523438" fill="#e6e6e6" id="svg_24"/><rect x="282.75909423828125" y="430.19403076171875" width="11.439559936523438" height="11.439559936523438" fill="#e6e6e6" id="svg_25"/><path d="M183.06536999999997,48.77098013671875 a29.729,29.729 0 1 0 29.729,29.729 A29.81642,29.81642 0 0 0 183.06536999999997,48.77098013671875 zm0,8.91871 a8.91871,8.91871 0 1 1 -8.9187,8.91871 a8.94861,8.94861 0 0 1 8.9187,-8.91871 zm0,42.93556 a21.65738,21.65738 0 0 1 -17.83741,-9.519 c0.14293000000000003,-5.94581 11.89161,-9.21886 17.83741,-9.21886 s17.69448,3.27305 17.83741,9.21886 a21.69347,21.69347 0 0 1 -17.83741,9.519 z" fill="#009900" id="svg_26" class="" fill-opacity="1"/><rect y="548.801513671875" width="888" height="2.24072003364563" fill="#3f3d56" id="svg_27"/><path d="M716.929,168.84491013671874 S727.07913,190.27304013671875 733.84591,192.52864013671876 l-19.17253,29.32269 l-15.78915,-19.17253 s1.1278,-13.53355 -2.2555899999999998,-19.17253 S716.929,168.84491013671874 716.929,168.84491013671874 z" fill="#fbbebe" id="svg_28"/><circle cx="701.1398315429688" cy="166.58932495117188" r="21.428119659423828" fill="#fbbebe" id="svg_29"/><polygon points="671.817 319.97 677.456 335.759 684.223 327.864 678.544 309.88 671.817 319.97" fill="#fbbebe" id="svg_30"/><path d="M687.60627,312.07500013671876 s-6.76677,28.1949 -3.3833800000000003,41.72846 s13.53355,106.01282 13.53355,106.01282 l6.76677,73.30674 L731.59032,535.3786401367188 l-3.38339,-85.71249 l3.38339,-74.43454 l19.17253,72.17894 V535.3786401367188 l32.70608,1.1278 l-3.3833800000000003,-113.9074 s2.2555899999999998,-87.96809 -12.40576,-99.24605 s-16.91694,-13.53355 -16.91694,-13.53355 z" fill="#2f2e41" id="svg_31" class="selected"/><path d="M710.16219,531.9952201367188 l-2.2555899999999998,7.89457 l-3.38339,10.15017 s-10.15016,20.30033 6.76678,16.91694 s14.66135,-11.278 14.66135,-11.278 s5.639,-3.38339 4.5111799999999995,-4.51119 s-1.12779,-18.04473 -1.12779,-18.04473 z" fill="#2f2e41" id="svg_32"/><path d="M775.57436,531.9952201367188 l2.2555899999999998,7.89457 l3.38339,10.15017 s10.15017,20.30033 -6.76677,16.91694 s-14.66135,-11.278 -14.66135,-11.278 s-5.639,-3.38339 -4.51119,-4.51119 s1.1278,-18.04473 1.1278,-18.04473 z" fill="#2f2e41" id="svg_33"/><path d="M714.67338,208.31777013671876 L728.467,188.01745013671876 l25.67928,13.53355 l3.38339,117.29078 s-14.66135,-9.02237 -37.21727,2.2555899999999998 s-37.21727,3.38339 -37.21727,3.38339 l13.53355,-50.75082 l-5.639,-67.66776 l8.06544,-7.32046 z" fill="#e6e6e6" id="svg_34"/><path d="M699.05783,196.60693013671874 l-4.68478,3.8162700000000003 s-29.3227,14.66135 -30.45049,24.81151 l20.30033,55.262 s5.639,12.40575 1.12779,16.91694 s-9.02237,15.78914 -7.89457,21.42812 s-6.76678,29.3227 2.2555899999999998,29.3227 s30.45049,-54.13421 29.3227,-75.56234 S707.126,195.04626013671873 699.05783,196.60693013671874 z" fill="#2f2e41" id="svg_35"/><path d="M674.07272,218.46794013671877 l-6.95141,0.7435700000000001 s-6.58214,4.89541 -6.58214,16.17337 s-1.1278,45.11184 -1.1278,45.11184 s-2.2555899999999998,16.91694 4.51119,29.32269 s7.89457,15.78915 7.89457,15.78915 l11.278,-13.53356 v-28.1949 l4.5111799999999995,-18.04473 z" fill="#2f2e41" id="svg_36"/><path d="M725.07616,183.37743013671877 l11.02534,4.640000000000001 s38.34507,10.15016 43.98405,27.0671 L764.2964,254.55741013671877 s11.278,72.17894 7.89457,72.17894 h-3.3833800000000003 s9.02236,6.76678 3.3833800000000003,9.02237 s-19.17253,20.30033 -22.55592,12.40576 s-23.68371,-101.50164 -21.42812,-121.802 S723.07319,185.50418013671873 725.07616,183.37743013671877 z" fill="#2f2e41" id="svg_37"/><path d="M709.5983,138.95832013671873 v-2.2555899999999998 h-5.639 s-9.02237,-5.639 -16.91694,1.12779 s-11.278,10.15017 -11.278,10.15017 l-3.38339,4.5111799999999995 l3.38339,1.1278 l-3.38339,3.38339 h3.38339 l-2.2556,3.3833800000000003 l6.32173,8.45847 s-0.6827500000000002,-8.45847 6.084,-8.45847 s14.66135,-9.02236 14.66135,-9.02236 l16.91694,12.40575 s-1.1278,-6.7349 2.81949,-6.75084 C720.31236,157.01899013671874 722.00405,140.08612013671876 709.5983,138.95832013671873 z" fill="#2f2e41" id="svg_38"/><path d="M787.98012,319.9695801367188 l-2.2555899999999998,23.68371 s0,34.96168 -12.40576,31.57829 s-2.2555899999999998,-32.70608 -2.2555899999999998,-32.70608 l1.7136900000000002,-21.20925 z" fill="#fbbebe" id="svg_39"/><path d="M763.16861,209.44557013671874 s14.661340000000001,-5.639 19.17253,11.278 s10.15016,50.75082 10.15016,50.75082 a50.75106,50.75106 0 0 1 0,37.21727 l-3.38339,16.91694 l-19.17253,-2.2556 l-4.5111799999999995,-38.34506 L760.913,236.51264013671874 z" fill="#2f2e41" id="svg_40"/></g></svg>